<?xml version="1.0" encoding="UTF-8" standalone="no"?>
<!DOCTYPE svg PUBLIC "-//W3C//DTD SVG 1.1//EN"
 "http://www.w3.org/Graphics/SVG/1.1/DTD/svg11.dtd">
<!-- Generated by graphviz version 2.42.4 (0)
 -->
<!-- Title: StudentExamFlow Pages: 1 -->
<svg width="505pt" height="910pt"
 viewBox="0.00 0.00 505.00 909.51" xmlns="http://www.w3.org/2000/svg" xmlns:xlink="http://www.w3.org/1999/xlink">
<g id="graph0" class="graph" transform="scale(1 1) rotate(0) translate(18 891.51)">
<title>StudentExamFlow</title>
<polygon fill="white" stroke="transparent" points="-18,18 -18,-891.51 487,-891.51 487,18 -18,18"/>
<!-- start -->
<g id="node1" class="node">
<title>start</title>
<ellipse fill="#dbeafe" stroke="#2563eb" stroke-width="1.3" cx="203.5" cy="-846.64" rx="112.36" ry="26.74"/>
<text text-anchor="middle" x="203.5" y="-849.84" font-family="Arial" font-size="11.00">Start</text>
<text text-anchor="middle" x="203.5" y="-837.84" font-family="Arial" font-size="11.00">Student opens exam search</text>
</g>
<!-- search -->
<g id="node2" class="node">
<title>search</title>
<path fill="#f8fafc" stroke="#334155" stroke-width="1.3" d="M303,-782.77C303,-782.77 104,-782.77 104,-782.77 98,-782.77 92,-776.77 92,-770.77 92,-770.77 92,-758.77 92,-758.77 92,-752.77 98,-746.77 104,-746.77 104,-746.77 303,-746.77 303,-746.77 309,-746.77 315,-752.77 315,-758.77 315,-758.77 315,-770.77 315,-770.77 315,-776.77 309,-782.77 303,-782.77"/>
<text text-anchor="middle" x="203.5" y="-761.97" font-family="Arial" font-size="11.00">Search exams by query, category or code</text>
</g>
<!-- start&#45;&gt;search -->
<g id="edge1" class="edge">
<title>start&#45;&gt;search</title>
<path fill="none" stroke="#475569" stroke-width="1.2" d="M203.5,-819.49C203.5,-810.1 203.5,-799.56 203.5,-790.32"/>
<polygon fill="#475569" stroke="#475569" stroke-width="1.2" points="206.02,-790.12 203.5,-782.92 200.98,-790.12 206.02,-790.12"/>
</g>
<!-- found -->
<g id="node4" class="node">
<title>found</title>
<polygon fill="#fef3c7" stroke="#b45309" stroke-width="1.3" points="203.5,-709.77 115.5,-683.77 203.5,-657.77 291.5,-683.77 203.5,-709.77"/>
<text text-anchor="middle" x="203.5" y="-680.97" font-family="Arial" font-size="11.00">Exam found?</text>
</g>
<!-- search&#45;&gt;found -->
<g id="edge3" class="edge">
<title>search&#45;&gt;found</title>
<path fill="none" stroke="#475569" stroke-width="1.2" d="M203.5,-746.63C203.5,-738.09 203.5,-727.48 203.5,-717.47"/>
<polygon fill="#475569" stroke="#475569" stroke-width="1.2" points="206.02,-717.18 203.5,-709.98 200.98,-717.18 206.02,-717.18"/>
</g>
<!-- exams_store -->
<g id="node3" class="node">
<title>exams_store</title>
<path fill="#fff7ed" stroke="#c2410c" stroke-width="1.3" d="M469,-779.5C469,-781.3 447.26,-782.77 420.5,-782.77 393.74,-782.77 372,-781.3 372,-779.5 372,-779.5 372,-750.04 372,-750.04 372,-748.24 393.74,-746.77 420.5,-746.77 447.26,-746.77 469,-748.24 469,-750.04 469,-750.04 469,-779.5 469,-779.5"/>
<path fill="none" stroke="#c2410c" stroke-width="1.3" d="M469,-779.5C469,-777.69 447.26,-776.22 420.5,-776.22 393.74,-776.22 372,-777.69 372,-779.5"/>
<text text-anchor="middle" x="420.5" y="-761.97" font-family="Arial" font-size="11.00">quizproj.exams</text>
</g>
<!-- exams_store&#45;&gt;search -->
<g id="edge2" class="edge">
<title>exams_store&#45;&gt;search</title>
<path fill="none" stroke="#475569" stroke-width="1.2" stroke-dasharray="5,2" d="M371.85,-764.77C358.77,-764.77 348.17,-764.77 348.17,-764.77 348.17,-764.77 336.64,-764.77 322.79,-764.77"/>
<polygon fill="#475569" stroke="#475569" stroke-width="1.2" points="322.59,-762.25 315.39,-764.77 322.59,-767.29 322.59,-762.25"/>
</g>
<!-- noresults -->
<g id="node5" class="node">
<title>noresults</title>
<path fill="#fee2e2" stroke="#dc2626" stroke-width="1.3" d="M381,-611.77C381,-611.77 256,-611.77 256,-611.77 250,-611.77 244,-605.77 244,-599.77 244,-599.77 244,-587.77 244,-587.77 244,-581.77 250,-575.77 256,-575.77 256,-575.77 381,-575.77 381,-575.77 387,-575.77 393,-581.77 393,-587.77 393,-587.77 393,-599.77 393,-599.77 393,-605.77 387,-611.77 381,-611.77"/>
<text text-anchor="middle" x="318.5" y="-590.97" font-family="Arial" font-size="11.00">Show no&#45;results message</text>
</g>
<!-- found&#45;&gt;noresults -->
<g id="edge5" class="edge">
<title>found&#45;&gt;noresults</title>
<path fill="none" stroke="#475569" stroke-width="1.2" d="M226.23,-664.23C244.98,-648.95 268.5,-629.77 268.5,-629.77 268.5,-629.77 277.68,-623.34 288.17,-616"/>
<polygon fill="#475569" stroke="#475569" stroke-width="1.2" points="289.63,-618.05 294.09,-611.86 286.74,-613.92 289.63,-618.05"/>
<text text-anchor="middle" x="275" y="-632.17" font-family="Arial" font-size="9.50">No</text>
</g>
<!-- load -->
<g id="node6" class="node">
<title>load</title>
<path fill="#ecfdf5" stroke="#0f766e" stroke-width="1.3" d="M174.5,-611.77C174.5,-611.77 68.5,-611.77 68.5,-611.77 62.5,-611.77 56.5,-605.77 56.5,-599.77 56.5,-599.77 56.5,-587.77 56.5,-587.77 56.5,-581.77 62.5,-575.77 68.5,-575.77 68.5,-575.77 174.5,-575.77 174.5,-575.77 180.5,-575.77 186.5,-581.77 186.5,-587.77 186.5,-587.77 186.5,-599.77 186.5,-599.77 186.5,-605.77 180.5,-611.77 174.5,-611.77"/>
<text text-anchor="middle" x="121.5" y="-590.97" font-family="Arial" font-size="11.00">Load exam by examId</text>
</g>
<!-- found&#45;&gt;load -->
<g id="edge4" class="edge">
<title>found&#45;&gt;load</title>
<path fill="none" stroke="#475569" stroke-width="1.2" d="M184.89,-662.8C172.29,-649.28 155.63,-631.39 142.55,-617.36"/>
<polygon fill="#475569" stroke="#475569" stroke-width="1.2" points="144.3,-615.54 137.54,-611.99 140.61,-618.97 144.3,-615.54"/>
<text text-anchor="middle" x="170.5" y="-632.17" font-family="Arial" font-size="9.50">Yes</text>
</g>
<!-- noresults&#45;&gt;search -->
<g id="edge6" class="edge">
<title>noresults&#45;&gt;search</title>
<path fill="none" stroke="#475569" stroke-width="1.2" d="M316.68,-612.24C313.32,-644.41 306.5,-709.77 306.5,-709.77 306.5,-709.77 271.72,-728 242.59,-743.28"/>
<polygon fill="#475569" stroke="#475569" stroke-width="1.2" points="241.3,-741.11 236.09,-746.68 243.64,-745.57 241.3,-741.11"/>
<text text-anchor="middle" x="331.5" y="-681.17" font-family="Arial" font-size="9.50">Try again</text>
</g>
<!-- load&#45;&gt;noresults -->
<!-- session -->
<g id="node7" class="node">
<title>session</title>
<path fill="#ecfdf5" stroke="#0f766e" stroke-width="1.3" d="M194,-538.77C194,-538.77 49,-538.77 49,-538.77 43,-538.77 37,-532.77 37,-526.77 37,-526.77 37,-514.77 37,-514.77 37,-508.77 43,-502.77 49,-502.77 49,-502.77 194,-502.77 194,-502.77 200,-502.77 206,-508.77 206,-514.77 206,-514.77 206,-526.77 206,-526.77 206,-532.77 200,-538.77 194,-538.77"/>
<text text-anchor="middle" x="121.5" y="-517.97" font-family="Arial" font-size="11.00">Start or resume ExamSession</text>
</g>
<!-- load&#45;&gt;session -->
<g id="edge8" class="edge">
<title>load&#45;&gt;session</title>
<path fill="none" stroke="#475569" stroke-width="1.2" d="M121.5,-575.58C121.5,-566.77 121.5,-555.89 121.5,-546.23"/>
<polygon fill="#475569" stroke="#475569" stroke-width="1.2" points="124.02,-546 121.5,-538.8 118.98,-546 124.02,-546"/>
</g>
<!-- display -->
<g id="node9" class="node">
<title>display</title>
<path fill="#f8fafc" stroke="#334155" stroke-width="1.3" d="M228.5,-465.77C228.5,-465.77 14.5,-465.77 14.5,-465.77 8.5,-465.77 2.5,-459.77 2.5,-453.77 2.5,-453.77 2.5,-439.77 2.5,-439.77 2.5,-433.77 8.5,-427.77 14.5,-427.77 14.5,-427.77 228.5,-427.77 228.5,-427.77 234.5,-427.77 240.5,-433.77 240.5,-439.77 240.5,-439.77 240.5,-453.77 240.5,-453.77 240.5,-459.77 234.5,-465.77 228.5,-465.77"/>
<text text-anchor="middle" x="121.5" y="-449.97" font-family="Arial" font-size="11.00">Display questions, timer and saved answers</text>
<text text-anchor="middle" x="121.5" y="-437.97" font-family="Arial" font-size="11.00">Student answers; every choice is auto&#45;saved</text>
</g>
<!-- session&#45;&gt;display -->
<g id="edge10" class="edge">
<title>session&#45;&gt;display</title>
<path fill="none" stroke="#475569" stroke-width="1.2" d="M121.5,-502.71C121.5,-493.89 121.5,-482.96 121.5,-473.17"/>
<polygon fill="#475569" stroke="#475569" stroke-width="1.2" points="124.02,-473.17 121.5,-465.97 118.98,-473.17 124.02,-473.17"/>
</g>
<!-- sessions_store -->
<g id="node8" class="node">
<title>sessions_store</title>
<path fill="#fff7ed" stroke="#c2410c" stroke-width="1.3" d="M399,-535.5C399,-537.3 368.75,-538.77 331.5,-538.77 294.25,-538.77 264,-537.3 264,-535.5 264,-535.5 264,-506.04 264,-506.04 264,-504.24 294.25,-502.77 331.5,-502.77 368.75,-502.77 399,-504.24 399,-506.04 399,-506.04 399,-535.5 399,-535.5"/>
<path fill="none" stroke="#c2410c" stroke-width="1.3" d="M399,-535.5C399,-533.69 368.75,-532.22 331.5,-532.22 294.25,-532.22 264,-533.69 264,-535.5"/>
<text text-anchor="middle" x="331.5" y="-517.97" font-family="Arial" font-size="11.00">quizproj.examSessions</text>
</g>
<!-- sessions_store&#45;&gt;session -->
<g id="edge9" class="edge">
<title>sessions_store&#45;&gt;session</title>
<path fill="none" stroke="#475569" stroke-width="1.2" stroke-dasharray="5,2" d="M263.83,-520.77C262.34,-520.77 261.5,-520.77 261.5,-520.77 261.5,-520.77 233.99,-520.77 213.46,-520.77"/>
<polygon fill="#475569" stroke="#475569" stroke-width="1.2" points="213.2,-518.25 206,-520.77 213.2,-523.29 213.2,-518.25"/>
</g>
<!-- sessions_store&#45;&gt;display -->
<g id="edge11" class="edge">
<title>sessions_store&#45;&gt;display</title>
<path fill="none" stroke="#475569" stroke-width="1.2" stroke-dasharray="5,2" d="M283.32,-503.25C253.04,-492.87 213.73,-479.39 181.44,-468.32"/>
<polygon fill="#475569" stroke="#475569" stroke-width="1.2" points="181.87,-465.8 174.24,-465.85 180.23,-470.57 181.87,-465.8"/>
</g>
<!-- submit -->
<g id="node10" class="node">
<title>submit</title>
<polygon fill="#fef3c7" stroke="#b45309" stroke-width="1.3" points="121.5,-381.77 15.5,-343.77 121.5,-305.77 227.5,-343.77 121.5,-381.77"/>
<text text-anchor="middle" x="121.5" y="-346.97" font-family="Arial" font-size="11.00">Submit clicked</text>
<text text-anchor="middle" x="121.5" y="-334.97" font-family="Arial" font-size="11.00">or timer expired?</text>
</g>
<!-- display&#45;&gt;submit -->
<g id="edge12" class="edge">
<title>display&#45;&gt;submit</title>
<path fill="none" stroke="#475569" stroke-width="1.2" d="M121.5,-427.71C121.5,-416.99 121.5,-402.88 121.5,-389.35"/>
<polygon fill="#475569" stroke="#475569" stroke-width="1.2" points="124.02,-389.11 121.5,-381.91 118.98,-389.11 124.02,-389.11"/>
</g>
<!-- submit&#45;&gt;display -->
<g id="edge13" class="edge">
<title>submit&#45;&gt;display</title>
<path fill="none" stroke="#475569" stroke-width="1.2" d="M131.27,-378.35C134.6,-389.8 137.5,-399.77 137.5,-399.77 137.5,-399.77 137.5,-409.77 137.5,-409.77 137.5,-409.77 135.41,-414.47 132.74,-420.48"/>
<polygon fill="#475569" stroke="#475569" stroke-width="1.2" points="130.31,-419.74 129.69,-427.35 134.91,-421.79 130.31,-419.74"/>
<text text-anchor="middle" x="144" y="-402.17" font-family="Arial" font-size="9.50">No</text>
</g>
<!-- calculate -->
<g id="node11" class="node">
<title>calculate</title>
<path fill="#ecfdf5" stroke="#0f766e" stroke-width="1.3" d="M229,-259.77C229,-259.77 14,-259.77 14,-259.77 8,-259.77 2,-253.77 2,-247.77 2,-247.77 2,-233.77 2,-233.77 2,-227.77 8,-221.77 14,-221.77 14,-221.77 229,-221.77 229,-221.77 235,-221.77 241,-227.77 241,-233.77 241,-233.77 241,-247.77 241,-247.77 241,-253.77 235,-259.77 229,-259.77"/>
<text text-anchor="middle" x="121.5" y="-243.97" font-family="Arial" font-size="11.00">Calculate Result snapshot</text>
<text text-anchor="middle" x="121.5" y="-231.97" font-family="Arial" font-size="11.00">score, percent, selected and correct answers</text>
</g>
<!-- submit&#45;&gt;calculate -->
<g id="edge14" class="edge">
<title>submit&#45;&gt;calculate</title>
<path fill="none" stroke="#475569" stroke-width="1.2" d="M121.5,-305.73C121.5,-292.9 121.5,-278.8 121.5,-267.12"/>
<polygon fill="#475569" stroke="#475569" stroke-width="1.2" points="124.02,-267.03 121.5,-259.83 118.98,-267.03 124.02,-267.03"/>
<text text-anchor="middle" x="129.5" y="-280.17" font-family="Arial" font-size="9.50">Yes</text>
</g>
<!-- save -->
<g id="node12" class="node">
<title>save</title>
<path fill="#ecfdf5" stroke="#0f766e" stroke-width="1.3" d="M231,-184.77C231,-184.77 12,-184.77 12,-184.77 6,-184.77 0,-178.77 0,-172.77 0,-172.77 0,-160.77 0,-160.77 0,-154.77 6,-148.77 12,-148.77 12,-148.77 231,-148.77 231,-148.77 237,-148.77 243,-154.77 243,-160.77 243,-160.77 243,-172.77 243,-172.77 243,-178.77 237,-184.77 231,-184.77"/>
<text text-anchor="middle" x="121.5" y="-163.97" font-family="Arial" font-size="11.00">Save Result and remove active ExamSession</text>
</g>
<!-- calculate&#45;&gt;save -->
<g id="edge15" class="edge">
<title>calculate&#45;&gt;save</title>
<path fill="none" stroke="#475569" stroke-width="1.2" d="M121.5,-221.6C121.5,-212.79 121.5,-202.08 121.5,-192.53"/>
<polygon fill="#475569" stroke="#475569" stroke-width="1.2" points="124.02,-192.39 121.5,-185.19 118.98,-192.39 124.02,-192.39"/>
</g>
<!-- dashboards -->
<g id="node14" class="node">
<title>dashboards</title>
<path fill="#f8fafc" stroke="#334155" stroke-width="1.3" d="M218,-111.77C218,-111.77 25,-111.77 25,-111.77 19,-111.77 13,-105.77 13,-99.77 13,-99.77 13,-85.77 13,-85.77 13,-79.77 19,-73.77 25,-73.77 25,-73.77 218,-73.77 218,-73.77 224,-73.77 230,-79.77 230,-85.77 230,-85.77 230,-99.77 230,-99.77 230,-105.77 224,-111.77 218,-111.77"/>
<text text-anchor="middle" x="121.5" y="-95.97" font-family="Arial" font-size="11.00">Display score and correct answers</text>
<text text-anchor="middle" x="121.5" y="-83.97" font-family="Arial" font-size="11.00">Update student and teacher dashboards</text>
</g>
<!-- save&#45;&gt;dashboards -->
<g id="edge17" class="edge">
<title>save&#45;&gt;dashboards</title>
<path fill="none" stroke="#475569" stroke-width="1.2" d="M121.5,-148.71C121.5,-139.89 121.5,-128.96 121.5,-119.17"/>
<polygon fill="#475569" stroke="#475569" stroke-width="1.2" points="124.02,-119.17 121.5,-111.97 118.98,-119.17 124.02,-119.17"/>
</g>
<!-- results_store -->
<g id="node13" class="node">
<title>results_store</title>
<path fill="#fff7ed" stroke="#c2410c" stroke-width="1.3" d="M398,-181.5C398,-183.3 376.26,-184.77 349.5,-184.77 322.74,-184.77 301,-183.3 301,-181.5 301,-181.5 301,-152.04 301,-152.04 301,-150.24 322.74,-148.77 349.5,-148.77 376.26,-148.77 398,-150.24 398,-152.04 398,-152.04 398,-181.5 398,-181.5"/>
<path fill="none" stroke="#c2410c" stroke-width="1.3" d="M398,-181.5C398,-179.69 376.26,-178.22 349.5,-178.22 322.74,-178.22 301,-179.69 301,-181.5"/>
<text text-anchor="middle" x="349.5" y="-163.97" font-family="Arial" font-size="11.00">quizproj.results</text>
</g>
<!-- results_store&#45;&gt;save -->
<g id="edge16" class="edge">
<title>results_store&#45;&gt;save</title>
<path fill="none" stroke="#475569" stroke-width="1.2" stroke-dasharray="5,2" d="M300.94,-166.77C286.04,-166.77 273.5,-166.77 273.5,-166.77 273.5,-166.77 263.33,-166.77 250.43,-166.77"/>
<polygon fill="#475569" stroke="#475569" stroke-width="1.2" points="250.23,-164.25 243.03,-166.77 250.23,-169.29 250.23,-164.25"/>
</g>
<!-- end -->
<g id="node15" class="node">
<title>end</title>
<ellipse fill="#dcfce7" stroke="#15803d" stroke-width="1.3" cx="121.5" cy="-18.38" rx="31.23" ry="18.27"/>
<text text-anchor="middle" x="121.5" y="-15.58" font-family="Arial" font-size="11.00">End</text>
</g>
<!-- dashboards&#45;&gt;end -->
<g id="edge18" class="edge">
<title>dashboards&#45;&gt;end</title>
<path fill="none" stroke="#475569" stroke-width="1.2" d="M121.5,-73.5C121.5,-64.65 121.5,-53.87 121.5,-44.28"/>
<polygon fill="#475569" stroke="#475569" stroke-width="1.2" points="124.02,-44.1 121.5,-36.9 118.98,-44.1 124.02,-44.1"/>
</g>
</g>
</svg>
